<?xml version="1.0" encoding="utf-8" ?><svg xmlns="http://www.w3.org/2000/svg" xmlns:xlink="http://www.w3.org/1999/xlink" width="254" height="254" viewBox="0 0 254 254"><defs><clipPath id="rounded"><rect width="254" height="254" rx="32" ry="32"/></clipPath></defs><g clip-path="url(#rounded)"><rect width="254" height="254" fill="#09A00C"/><path fill="#FEFEFE" d="M175.421 82.0113C168.185 81.215 159.874 82.8992 152.695 81.4324C151.827 81.2551 151.627 78.919 152.07 78.0862C153.442 77.3408 155.469 77.4631 157.025 77.4748C163.204 77.5213 169.381 77.1892 175.555 77.4259C178.131 77.5247 178.752 78.6115 179.677 80.8481C180.863 83.9388 182.191 86.5649 184.313 89.1265C185.8 93.604 190.565 100.486 192.864 104.866C194.46 107.907 197.29 111.323 199.086 114.447C200.68 117.219 202.462 121.197 204.313 123.647C202.713 124.745 200.046 125.821 198.213 126.492C192.544 128.568 189.644 130.796 185.529 135.091C177.324 143.652 176.493 153.978 177.164 165.218C177.237 166.446 177.508 170.149 176.728 170.983C170.342 171.505 158.154 171.179 151.371 171.197L105.245 171.229C99.8992 168.064 96.0564 163.046 91.5354 158.892C89.0059 156.568 86.1211 154.627 83.4644 152.45C80.8811 150.332 78.2898 148.065 76.0071 145.626C73.5078 142.956 71.2181 140.046 68.5884 137.504C62.4151 131.537 55.681 126.197 49.459 120.269C47.6085 118.506 45.3522 116.609 43.8322 114.556C43.4428 114.03 43.16 113.423 43.1258 112.761C43.1003 112.267 43.3219 111.354 43.6683 111.002C44.8087 109.846 64.971 110.333 67.783 110.309C69.4705 110.287 71.344 110.269 72.9828 110.702C75.2992 111.315 77.3973 112.487 79.8219 112.708C84.8256 113.162 102.449 111.733 105.531 113.297C106.146 113.609 106.465 113.988 106.686 114.646C106.701 115.581 106.05 116.413 105.543 117.224C101.92 117.638 95.9159 117.11 92.8777 117.739L92.7466 118.185C93.5387 119.735 105.71 123.926 108.145 127.281C113.718 134.96 115.63 145.848 120.29 154.055C122.916 154.336 152.659 154.275 153.808 153.897C155.851 153.225 168.48 140.229 170.759 137.601C172.861 135.177 175.272 132.52 176.649 129.617C174.586 124.301 173.229 119.045 171.61 113.398C170.385 109.066 166.531 102.77 168.395 98.2572C169.753 94.9718 175.309 91.737 178.151 89.8777C176.846 87.0282 176.247 84.9931 175.421 82.0113Z"/><path fill="#FEFEFE" d="M207.497 131.225C222.063 129.484 235.291 139.857 237.073 154.417C238.856 168.977 228.521 182.235 213.965 184.059C199.351 185.89 186.029 175.504 184.239 160.885C182.449 146.266 192.873 132.973 207.497 131.225Z"/><path fill="#FEFEFE" d="M20.1436 68.3687C37.1293 67.9032 55.9871 68.5028 73.1495 68.5626C73.4948 74.9356 73.3288 81.7462 73.2997 88.1563C73.2732 93.9935 74.2004 100.714 71.6842 105.961C70.0625 106.011 68.4376 106.004 66.8163 105.938C50.6801 105.29 34.534 106.571 18.3948 105.899C12.859 105.669 13.9293 98.1862 14.0117 94.2545L21.1561 94.3296C24.4428 94.3944 42.9509 95.0577 44.5816 93.714C44.9974 93.3714 45.0196 93.0406 45.0454 92.5287C45.086 91.7215 44.8461 90.7371 44.2459 90.1642C43.9062 89.8399 43.3596 89.7728 42.9109 89.7298C39.5424 89.4068 35.8965 89.6983 32.5067 89.6998C26.4181 89.7026 20.361 89.5672 14.2702 89.7389L14.2314 82.0749C25.6251 81.9076 37.1479 82.3997 48.5571 82.2812C51.2948 82.2528 56.3128 82.947 54.8819 78.3293C53.2504 76.912 43.809 77.4626 41.1929 77.471C32.1433 77.4563 23.094 77.5684 14.0476 77.8072C13.8633 74.3193 13.8979 71.953 14.0869 68.5113L20.1436 68.3687Z"/><path fill="#FEFEFE" d="M54.66 132.019C54.6762 132.013 54.6915 132.004 54.7086 132.002C57.2645 131.791 74.4651 149.859 77.2377 152.444C81.191 156.13 85.4588 159.375 89.3453 163.176C87.0001 173.084 80.5424 179.463 71.1928 183.048C41.2513 192.343 20.4943 148.809 54.66 132.019Z"/><path fill="#FEFEFE" d="M19.1438 57.603C35.4601 57.2217 52.1579 57.776 68.5087 57.5166C73.1829 57.4424 73.1652 59.9794 73.4098 63.9426L68.1875 64.0752C55.6816 64.2173 43.1747 64.2399 30.6684 64.143C26.9894 64.1199 17.4783 64.3028 14.3872 63.9021C13.7102 62.8976 14.4856 60.6845 15.2016 59.7956C16.5298 58.1465 17.0766 57.8726 19.1438 57.603Z"/><path fill="#FEFEFE" d="M184.313 89.1265C183.505 86.2677 181.412 82.1084 182.539 79.0399C183.057 78.4852 182.776 78.6212 183.625 78.5833C184.766 79.0988 185.316 79.6488 186.132 80.6188C187.784 83.1717 188.421 84.6942 189.385 87.586C188.041 90.4445 187.03 91.4276 184.313 89.1265Z"/></g></svg>